<svg width="40" height="40" viewBox="0 0 40 40" fill="none" xmlns="http://www.w3.org/2000/svg">
<path d="M22.1899 19.8333L28.0816 13.9399C28.2408 13.7862 28.3678 13.6023 28.4551 13.399C28.5425 13.1956 28.5884 12.9769 28.5904 12.7556C28.5923 12.5343 28.5501 12.3148 28.4663 12.11C28.3825 11.9052 28.2588 11.7191 28.1023 11.5626C27.9458 11.4061 27.7597 11.2824 27.5549 11.1986C27.35 11.1148 27.1306 11.0726 26.9093 11.0745C26.688 11.0764 26.4693 11.1224 26.2659 11.2098C26.0626 11.2971 25.8787 11.4241 25.7249 11.5833L19.8316 17.4749L13.9399 11.5833C13.7862 11.4241 13.6023 11.2971 13.399 11.2098C13.1956 11.1224 12.9769 11.0764 12.7556 11.0745C12.5343 11.0726 12.3148 11.1148 12.11 11.1986C11.9052 11.2824 11.7191 11.4061 11.5626 11.5626C11.4061 11.7191 11.2824 11.9052 11.1986 12.11C11.1148 12.3148 11.0726 12.5343 11.0745 12.7556C11.0764 12.9769 11.1224 13.1956 11.2098 13.399C11.2971 13.6023 11.4241 13.7862 11.5833 13.9399L17.4749 19.8316L11.5833 25.7249C11.4241 25.8787 11.2971 26.0626 11.2098 26.2659C11.1224 26.4693 11.0764 26.688 11.0745 26.9093C11.0726 27.1306 11.1148 27.35 11.1986 27.5549C11.2824 27.7597 11.4061 27.9458 11.5626 28.1023C11.7191 28.2588 11.9052 28.3825 12.11 28.4663C12.3148 28.5501 12.5343 28.5923 12.7556 28.5904C12.9769 28.5884 13.1956 28.5425 13.399 28.4551C13.6023 28.3678 13.7862 28.2408 13.9399 28.0816L19.8316 22.1899L25.7249 28.0816C25.8787 28.2408 26.0626 28.3678 26.2659 28.4551C26.4693 28.5425 26.688 28.5884 26.9093 28.5904C27.1306 28.5923 27.35 28.5501 27.5549 28.4663C27.7597 28.3825 27.9458 28.2588 28.1023 28.1023C28.2588 27.9458 28.3825 27.7597 28.4663 27.5549C28.5501 27.35 28.5923 27.1306 28.5904 26.9093C28.5884 26.688 28.5425 26.4693 28.4551 26.2659C28.3678 26.0626 28.2408 25.8787 28.0816 25.7249L22.1899 19.8333Z" fill="white"/>
</svg>
