<svg width="25" height="24" viewBox="0 0 25 24" fill="none" xmlns="http://www.w3.org/2000/svg">
<path d="M7.98164 2H16.3816C19.5816 2 22.1816 4.6 22.1816 7.8V16.2C22.1816 17.7383 21.5706 19.2135 20.4829 20.3012C19.3951 21.3889 17.9199 22 16.3816 22H7.98164C4.78164 22 2.18164 19.4 2.18164 16.2V7.8C2.18164 6.26174 2.79271 4.78649 3.88042 3.69878C4.96813 2.61107 6.44339 2 7.98164 2ZM7.78164 4C6.82686 4 5.91119 4.37928 5.23606 5.05442C4.56093 5.72955 4.18164 6.64522 4.18164 7.6V16.4C4.18164 18.39 5.79164 20 7.78164 20H16.5816C17.5364 20 18.4521 19.6207 19.1272 18.9456C19.8024 18.2705 20.1816 17.3548 20.1816 16.4V7.6C20.1816 5.61 18.5716 4 16.5816 4H7.78164ZM17.4316 5.5C17.7632 5.5 18.0811 5.6317 18.3155 5.86612C18.5499 6.10054 18.6816 6.41848 18.6816 6.75C18.6816 7.08152 18.5499 7.39946 18.3155 7.63388C18.0811 7.8683 17.7632 8 17.4316 8C17.1001 8 16.7822 7.8683 16.5478 7.63388C16.3133 7.39946 16.1816 7.08152 16.1816 6.75C16.1816 6.41848 16.3133 6.10054 16.5478 5.86612C16.7822 5.6317 17.1001 5.5 17.4316 5.5ZM12.1816 7C13.5077 7 14.7795 7.52678 15.7172 8.46447C16.6549 9.40215 17.1816 10.6739 17.1816 12C17.1816 13.3261 16.6549 14.5979 15.7172 15.5355C14.7795 16.4732 13.5077 17 12.1816 17C10.8556 17 9.58379 16.4732 8.64611 15.5355C7.70842 14.5979 7.18164 13.3261 7.18164 12C7.18164 10.6739 7.70842 9.40215 8.64611 8.46447C9.58379 7.52678 10.8556 7 12.1816 7ZM12.1816 9C11.386 9 10.6229 9.31607 10.0603 9.87868C9.49771 10.4413 9.18164 11.2044 9.18164 12C9.18164 12.7956 9.49771 13.5587 10.0603 14.1213C10.6229 14.6839 11.386 15 12.1816 15C12.9773 15 13.7404 14.6839 14.303 14.1213C14.8656 13.5587 15.1816 12.7956 15.1816 12C15.1816 11.2044 14.8656 10.4413 14.303 9.87868C13.7404 9.31607 12.9773 9 12.1816 9Z" fill="#898989"/>
</svg>
