<svg width="25" height="24" viewBox="0 0 25 24" fill="none" xmlns="http://www.w3.org/2000/svg">
<path d="M7.12109 5.00002C7.12083 5.53046 6.90986 6.03906 6.5346 6.41394C6.15934 6.78883 5.65053 6.99929 5.12009 6.99902C4.58966 6.99876 4.08106 6.78779 3.70617 6.41253C3.33129 6.03727 3.12083 5.52846 3.12109 4.99802C3.12136 4.46759 3.33233 3.95899 3.70759 3.5841C4.08285 3.20922 4.59166 2.99876 5.12209 2.99902C5.65253 2.99929 6.16113 3.21026 6.53601 3.58552C6.9109 3.96078 7.12136 4.46959 7.12109 5.00002ZM7.18109 8.48002H3.18109V21H7.18109V8.48002ZM13.5011 8.48002H9.52109V21H13.4611V14.43C13.4611 10.77 18.2311 10.43 18.2311 14.43V21H22.1811V13.07C22.1811 6.90002 15.1211 7.13002 13.4611 10.16L13.5011 8.48002Z" fill="#898989"/>
</svg>
