<svg width="20" height="20" viewBox="0 0 20 20" fill="none" xmlns="http://www.w3.org/2000/svg">
<path d="M10.0002 1.66666C6.50016 1.66666 3.3335 4.35 3.3335 8.5C3.3335 11.15 5.37516 14.2667 9.45016 17.8583C9.76683 18.1333 10.2418 18.1333 10.5585 17.8583C14.6252 14.2667 16.6668 11.15 16.6668 8.5C16.6668 4.35 13.5002 1.66666 10.0002 1.66666ZM10.0002 10C9.0835 10 8.3335 9.25 8.3335 8.33333C8.3335 7.41666 9.0835 6.66666 10.0002 6.66666C10.9168 6.66666 11.6668 7.41666 11.6668 8.33333C11.6668 9.25 10.9168 10 10.0002 10Z" fill="white"/>
</svg>
