<svg width="40" height="40" viewBox="0 0 40 40" fill="none" xmlns="http://www.w3.org/2000/svg">
<mask id="path-1-outside-1_676_45" maskUnits="userSpaceOnUse" x="1.33398" y="3" width="38" height="34" fill="black">
<rect fill="white" x="1.33398" y="3" width="38" height="34"/>
<path d="M25.984 29.5667C24.9357 30.27 22.189 31.7033 23.8623 33.4967C24.679 34.3733 25.5907 35 26.734 35H33.2673C34.4106 35 35.3223 34.3733 36.139 33.4967C37.8123 31.7033 35.0657 30.27 34.0173 29.5683C32.8323 28.7637 31.433 28.3335 30.0007 28.3335C28.5683 28.3335 27.169 28.762 25.984 29.5667ZM33.334 20.8333C33.334 21.7174 32.9828 22.5652 32.3577 23.1904C31.7326 23.8155 30.8847 24.1667 30.0007 24.1667C29.1166 24.1667 28.2687 23.8155 27.6436 23.1904C27.0185 22.5652 26.6673 21.7174 26.6673 20.8333C26.6673 19.9493 27.0185 19.1014 27.6436 18.4763C28.2687 17.8512 29.1166 17.5 30.0007 17.5C30.8847 17.5 31.7326 17.8512 32.3577 18.4763C32.9828 19.1014 33.334 19.9493 33.334 20.8333ZM16.6673 10H25.0007ZM16.6673 5H30.0007ZM11.6673 15.8333V23.3333C11.6673 24.905 11.6673 25.69 11.179 26.1783C10.6907 26.6667 9.90565 26.6667 8.33398 26.6667H6.66732C5.09565 26.6667 4.31065 26.6667 3.82232 26.1783C3.33398 25.69 3.33398 24.905 3.33398 23.3333V19.1667C3.33398 17.595 3.33398 16.81 3.82232 16.3217C4.31065 15.8333 5.09565 15.8333 6.66732 15.8333H11.6673ZM11.6673 15.8333H20.0007ZM10.834 8.33333C10.834 9.21739 10.4828 10.0652 9.85767 10.6904C9.23255 11.3155 8.38471 11.6667 7.50065 11.6667C6.6166 11.6667 5.76875 11.3155 5.14363 10.6904C4.51851 10.0652 4.16732 9.21739 4.16732 8.33333C4.16732 7.44928 4.51851 6.60143 5.14363 5.97631C5.76875 5.35119 6.6166 5 7.50065 5C8.38471 5 9.23255 5.35119 9.85767 5.97631C10.4828 6.60143 10.834 7.44928 10.834 8.33333Z"/>
</mask>
<path d="M25.984 29.5667L27.0983 31.2275L27.1075 31.2213L25.984 29.5667ZM23.8623 33.4967L25.3257 32.1334L25.3246 32.1322L23.8623 33.4967ZM36.139 33.4967L34.6767 32.1322L34.6756 32.1334L36.139 33.4967ZM34.0173 29.5683L32.8937 31.223L32.9049 31.2304L34.0173 29.5683ZM30.0007 28.3335L30.0007 30.3335L30.0007 28.3335ZM26.6673 20.8333L28.6673 20.8333L26.6673 20.8333ZM30.0007 17.5L30.0007 19.5L30.0007 17.5ZM16.6673 8C15.5627 8 14.6673 8.89543 14.6673 10C14.6673 11.1046 15.5627 12 16.6673 12V8ZM25.0007 12C26.1052 12 27.0007 11.1046 27.0007 10C27.0007 8.89543 26.1052 8 25.0007 8V12ZM16.6673 3C15.5627 3 14.6673 3.89543 14.6673 5C14.6673 6.10457 15.5627 7 16.6673 7V3ZM30.0007 7C31.1052 7 32.0007 6.10457 32.0007 5C32.0007 3.89543 31.1052 3 30.0007 3V7ZM20.0007 17.8333C21.1052 17.8333 22.0007 16.9379 22.0007 15.8333C22.0007 14.7288 21.1052 13.8333 20.0007 13.8333V17.8333ZM10.834 8.33333L12.834 8.33333L10.834 8.33333ZM7.50065 11.6667L7.50065 13.6667L7.50065 11.6667ZM4.16732 8.33333L2.16732 8.33333L4.16732 8.33333ZM7.50065 5L7.50065 3L7.50065 5ZM24.8697 27.9058C24.5598 28.1137 23.2476 28.8688 22.4216 29.7787C21.9769 30.2687 21.4472 31.028 21.3498 32.0318C21.2436 33.1268 21.6863 34.0962 22.4 34.8611L25.3246 32.1322C25.2016 32.0004 25.3602 32.1182 25.3311 32.4181C25.3109 32.6268 25.2197 32.6476 25.3834 32.4671C25.535 32.3002 25.7778 32.1011 26.1106 31.8715C26.27 31.7616 26.4326 31.6563 26.6001 31.5492C26.7544 31.4507 26.9427 31.3318 27.0983 31.2275L24.8697 27.9058ZM22.3989 34.8599C23.3675 35.8997 24.7735 37 26.734 37V33C26.4078 33 25.9905 32.847 25.3257 32.1334L22.3989 34.8599ZM26.734 37H33.2673V33H26.734V37ZM33.2673 37C35.2278 37 36.6338 35.8997 37.6024 34.8599L34.6756 32.1334C34.0108 32.847 33.5935 33 33.2673 33V37ZM37.6013 34.8611C38.315 34.0962 38.7577 33.1268 38.6515 32.0318C38.5541 31.028 38.0244 30.2686 37.5795 29.7787C36.7527 28.8682 35.4413 28.1148 35.1298 27.9063L32.9049 31.2304C33.06 31.3342 33.2483 31.4528 33.4023 31.5511C33.5697 31.6578 33.7322 31.763 33.8914 31.8727C34.2239 32.1019 34.4666 32.3008 34.6181 32.4676C34.7817 32.6478 34.6904 32.6269 34.6702 32.4181C34.6411 32.1182 34.7997 32.0004 34.6767 32.1322L37.6013 34.8611ZM35.1409 27.9137C33.6244 26.884 31.8337 26.3335 30.0007 26.3335L30.0007 30.3335C31.0323 30.3335 32.0403 30.6433 32.8938 31.2229L35.1409 27.9137ZM30.0007 26.3335C28.1692 26.3335 26.3782 26.8815 24.8604 27.9121L27.1075 31.2213C27.9597 30.6426 28.9674 30.3335 30.0007 30.3335L30.0007 26.3335ZM31.334 20.8333C31.334 21.187 31.1935 21.5261 30.9435 21.7761L33.7719 24.6046C34.7721 23.6044 35.334 22.2478 35.334 20.8333H31.334ZM30.9435 21.7761C30.6934 22.0262 30.3543 22.1667 30.0007 22.1667V26.1667C31.4151 26.1667 32.7717 25.6048 33.7719 24.6046L30.9435 21.7761ZM30.0007 22.1667C29.647 22.1667 29.3079 22.0262 29.0578 21.7761L26.2294 24.6046C27.2296 25.6048 28.5862 26.1667 30.0007 26.1667V22.1667ZM29.0578 21.7761C28.8078 21.5261 28.6673 21.187 28.6673 20.8333L24.6673 20.8333C24.6673 22.2478 25.2292 23.6044 26.2294 24.6046L29.0578 21.7761ZM28.6673 20.8333C28.6673 20.4797 28.8078 20.1406 29.0578 19.8905L26.2294 17.0621C25.2292 18.0623 24.6673 19.4188 24.6673 20.8333L28.6673 20.8333ZM29.0578 19.8905C29.3079 19.6405 29.647 19.5 30.0007 19.5L30.0007 15.5C28.5862 15.5 27.2296 16.0619 26.2294 17.0621L29.0578 19.8905ZM30.0007 19.5C30.3543 19.5 30.6934 19.6405 30.9435 19.8905L33.7719 17.0621C32.7717 16.0619 31.4151 15.5 30.0007 15.5L30.0007 19.5ZM30.9435 19.8905C31.1935 20.1406 31.334 20.4797 31.334 20.8333H35.334C35.334 19.4188 34.7721 18.0623 33.7719 17.0621L30.9435 19.8905ZM16.6673 12H25.0007V8H16.6673V12ZM16.6673 7H30.0007V3H16.6673V7ZM9.66732 15.8333V23.3333H13.6673V15.8333H9.66732ZM9.66732 23.3333C9.66732 23.7337 9.66719 24.05 9.66032 24.3218C9.65344 24.5946 9.64061 24.7729 9.62413 24.8954C9.59299 25.1269 9.57569 24.9532 9.76477 24.7641L12.5932 27.5925C13.2706 26.9151 13.4975 26.1047 13.5884 25.4287C13.6716 24.8106 13.6673 24.0626 13.6673 23.3333H9.66732ZM9.76477 24.7641C9.95385 24.575 10.1276 24.5923 9.89608 24.6235C9.77359 24.64 9.59523 24.6528 9.32242 24.6597C9.0506 24.6665 8.73434 24.6667 8.33398 24.6667V28.6667C9.06323 28.6667 9.81129 28.6709 10.4294 28.5878C11.1054 28.4968 11.9158 28.27 12.5932 27.5925L9.76477 24.7641ZM8.33398 24.6667H6.66732V28.6667H8.33398V24.6667ZM6.66732 24.6667C6.26696 24.6667 5.9507 24.6665 5.67889 24.6597C5.40607 24.6528 5.22772 24.64 5.10522 24.6235C4.87372 24.5923 5.04745 24.575 5.23653 24.7641L2.4081 27.5925C3.08552 28.27 3.89591 28.4968 4.57192 28.5878C5.19001 28.6709 5.93808 28.6667 6.66732 28.6667V24.6667ZM5.23653 24.7641C5.42561 24.9532 5.40831 25.1269 5.37717 24.8954C5.36069 24.7729 5.34787 24.5946 5.34098 24.3218C5.33412 24.05 5.33398 23.7337 5.33398 23.3333H1.33398C1.33398 24.0626 1.32973 24.8106 1.41288 25.4287C1.50382 26.1047 1.73069 26.9151 2.4081 27.5925L5.23653 24.7641ZM5.33398 23.3333V19.1667H1.33398V23.3333H5.33398ZM5.33398 19.1667C5.33398 18.7663 5.33412 18.45 5.34098 18.1782C5.34787 17.9054 5.36069 17.7271 5.37717 17.6046C5.40831 17.3731 5.42561 17.5468 5.23653 17.7359L2.4081 14.9075C1.73069 15.5849 1.50382 16.3953 1.41288 17.0713C1.32973 17.6894 1.33398 18.4374 1.33398 19.1667H5.33398ZM5.23653 17.7359C5.04745 17.925 4.87372 17.9077 5.10522 17.8765C5.22772 17.86 5.40607 17.8472 5.67889 17.8403C5.9507 17.8335 6.26696 17.8333 6.66732 17.8333V13.8333C5.93808 13.8333 5.19001 13.8291 4.57192 13.9122C3.89591 14.0032 3.08552 14.23 2.4081 14.9075L5.23653 17.7359ZM6.66732 17.8333H11.6673V13.8333H6.66732V17.8333ZM11.6673 17.8333H20.0007V13.8333H11.6673V17.8333ZM8.83398 8.33333C8.83398 8.68696 8.69351 9.02609 8.44346 9.27614L11.2719 12.1046C12.2721 11.1044 12.834 9.74782 12.834 8.33333L8.83398 8.33333ZM8.44346 9.27614C8.19341 9.52619 7.85427 9.66667 7.50065 9.66667L7.50065 13.6667C8.91514 13.6667 10.2717 13.1048 11.2719 12.1046L8.44346 9.27614ZM7.50065 9.66667C7.14703 9.66667 6.80789 9.52619 6.55784 9.27614L3.72941 12.1046C4.72961 13.1048 6.08616 13.6667 7.50065 13.6667L7.50065 9.66667ZM6.55784 9.27614C6.30779 9.02609 6.16732 8.68696 6.16732 8.33333L2.16732 8.33333C2.16732 9.74782 2.72922 11.1044 3.72941 12.1046L6.55784 9.27614ZM6.16732 8.33333C6.16732 7.97971 6.30779 7.64057 6.55784 7.39052L3.72941 4.5621C2.72922 5.56229 2.16732 6.91885 2.16732 8.33333H6.16732ZM6.55784 7.39052C6.80789 7.14048 7.14703 7 7.50065 7L7.50065 3C6.08616 3 4.72961 3.5619 3.72941 4.5621L6.55784 7.39052ZM7.50065 7C7.85427 7 8.19341 7.14048 8.44346 7.39052L11.2719 4.5621C10.2717 3.5619 8.91514 3 7.50065 3L7.50065 7ZM8.44346 7.39052C8.69351 7.64057 8.83398 7.97971 8.83398 8.33333L12.834 8.33333C12.834 6.91885 12.2721 5.56229 11.2719 4.5621L8.44346 7.39052Z" fill="#852FA4" mask="url(#path-1-outside-1_676_45)"/>
</svg>
