<svg width="30" height="30" viewBox="0 0 30 30" fill="none" xmlns="http://www.w3.org/2000/svg">
<path d="M13.2211 10.88C14.0124 9.46 14.4086 8.75 14.9999 8.75C15.5911 8.75 15.9874 9.46 16.7786 10.88L16.9836 11.2475C17.2086 11.6513 17.3211 11.8525 17.4961 11.985C17.6711 12.1188 17.8911 12.1688 18.3274 12.2675L18.7249 12.3575C20.2624 12.705 21.0311 12.8788 21.2136 13.4675C21.3974 14.055 20.8724 14.6675 19.8249 15.8938L19.5536 16.2112C19.2561 16.5587 19.1074 16.7337 19.0411 16.9487C18.9724 17.1637 18.9949 17.3962 19.0411 17.8612L19.0811 18.2837C19.2399 19.9187 19.3186 20.7362 18.8399 21.1C18.3611 21.4625 17.6424 21.1325 16.2024 20.47L15.8299 20.2975C15.4211 20.11 15.2174 20.015 14.9999 20.015C14.7836 20.015 14.5786 20.11 14.1699 20.2975L13.7974 20.47C12.3574 21.1325 11.6386 21.4637 11.1599 21.1C10.6811 20.7375 10.7599 19.9187 10.9186 18.2837L10.9586 17.8612C11.0049 17.3962 11.0274 17.1637 10.9586 16.9487C10.8924 16.7337 10.7436 16.5587 10.4461 16.2112L10.1749 15.8938C9.1274 14.6688 8.6024 14.0563 8.78615 13.4675C8.96865 12.88 9.73615 12.705 11.2736 12.3575L11.6724 12.2675C12.1099 12.1675 12.3274 12.1187 12.5036 11.9862C12.6786 11.8525 12.7911 11.6512 13.0161 11.2487L13.2211 10.88Z" fill="white"/>
<path opacity="0.8" fill-rule="evenodd" clip-rule="evenodd" d="M15 1.5625C15.2486 1.5625 15.4871 1.66127 15.6629 1.83709C15.8387 2.0129 15.9375 2.25136 15.9375 2.5V5C15.9375 5.24864 15.8387 5.4871 15.6629 5.66291C15.4871 5.83873 15.2486 5.9375 15 5.9375C14.7514 5.9375 14.5129 5.83873 14.3371 5.66291C14.1613 5.4871 14.0625 5.24864 14.0625 5V2.5C14.0625 2.25136 14.1613 2.0129 14.3371 1.83709C14.5129 1.66127 14.7514 1.5625 15 1.5625ZM1.5625 15C1.5625 14.7514 1.66127 14.5129 1.83709 14.3371C2.0129 14.1613 2.25136 14.0625 2.5 14.0625H5C5.24864 14.0625 5.4871 14.1613 5.66291 14.3371C5.83873 14.5129 5.9375 14.7514 5.9375 15C5.9375 15.2486 5.83873 15.4871 5.66291 15.6629C5.4871 15.8387 5.24864 15.9375 5 15.9375H2.5C2.25136 15.9375 2.0129 15.8387 1.83709 15.6629C1.66127 15.4871 1.5625 15.2486 1.5625 15ZM24.0625 15C24.0625 14.7514 24.1613 14.5129 24.3371 14.3371C24.5129 14.1613 24.7514 14.0625 25 14.0625H27.5C27.7486 14.0625 27.9871 14.1613 28.1629 14.3371C28.3387 14.5129 28.4375 14.7514 28.4375 15C28.4375 15.2486 28.3387 15.4871 28.1629 15.6629C27.9871 15.8387 27.7486 15.9375 27.5 15.9375H25C24.7514 15.9375 24.5129 15.8387 24.3371 15.6629C24.1613 15.4871 24.0625 15.2486 24.0625 15ZM15 24.0625C15.2486 24.0625 15.4871 24.1613 15.6629 24.3371C15.8387 24.5129 15.9375 24.7514 15.9375 25V27.5C15.9375 27.7486 15.8387 27.9871 15.6629 28.1629C15.4871 28.3387 15.2486 28.4375 15 28.4375C14.7514 28.4375 14.5129 28.3387 14.3371 28.1629C14.1613 27.9871 14.0625 27.7486 14.0625 27.5V25C14.0625 24.7514 14.1613 24.5129 14.3371 24.3371C14.5129 24.1613 14.7514 24.0625 15 24.0625Z" fill="white"/>
<path opacity="0.5" d="M23.1617 6.83765C23.3372 7.01343 23.4359 7.25171 23.4359 7.50015C23.4359 7.74859 23.3372 7.98687 23.1617 8.16265L22.7329 8.59265C22.556 8.76334 22.3192 8.85773 22.0734 8.85548C21.8276 8.85323 21.5925 8.75452 21.4187 8.58062C21.245 8.40671 21.1465 8.17153 21.1445 7.92572C21.1425 7.67991 21.2371 7.44314 21.4079 7.2664L21.8367 6.83765C22.0125 6.66209 22.2507 6.56348 22.4992 6.56348C22.7476 6.56348 22.9859 6.66209 23.1617 6.83765ZM6.83667 6.83765C7.01246 6.66209 7.25074 6.56348 7.49918 6.56348C7.74761 6.56348 7.98589 6.66209 8.16168 6.83765L8.59168 7.2664C8.76237 7.4433 8.85675 7.68016 8.8545 7.92597C8.85225 8.17177 8.75354 8.40687 8.57964 8.58061C8.40574 8.75434 8.17055 8.85283 7.92474 8.85485C7.67893 8.85687 7.44216 8.76226 7.26543 8.5914L6.83667 8.16265C6.66111 7.98687 6.5625 7.74859 6.5625 7.50015C6.5625 7.25171 6.66111 7.01343 6.83667 6.83765ZM8.59043 21.4089C8.76599 21.5847 8.8646 21.823 8.8646 22.0714C8.8646 22.3198 8.76599 22.5581 8.59043 22.7339L8.16168 23.1627C7.98396 23.3283 7.7489 23.4184 7.50602 23.4141C7.26315 23.4098 7.03141 23.3114 6.85965 23.1397C6.68788 22.9679 6.58949 22.7362 6.58521 22.4933C6.58092 22.2504 6.67107 22.0154 6.83667 21.8377L7.26543 21.4089C7.44121 21.2333 7.67949 21.1347 7.92792 21.1347C8.17636 21.1347 8.41464 21.2333 8.59043 21.4089ZM21.4079 21.4089C21.5837 21.2333 21.822 21.1347 22.0704 21.1347C22.3189 21.1347 22.5571 21.2333 22.7329 21.4089L23.1617 21.8377C23.3273 22.0154 23.4174 22.2504 23.4131 22.4933C23.4089 22.7362 23.3105 22.9679 23.1387 23.1397C22.9669 23.3114 22.7352 23.4098 22.4923 23.4141C22.2495 23.4184 22.0144 23.3283 21.8367 23.1627L21.4079 22.7339C21.2324 22.5581 21.1337 22.3198 21.1337 22.0714C21.1337 21.823 21.2324 21.5847 21.4079 21.4089Z" fill="white"/>
</svg>
